<svg width="24" height="24" viewBox="0 0 24 24" fill="none" xmlns="http://www.w3.org/2000/svg">
<path d="M17.0735 0H6.92655C3.1008 0 0 3.1007 0 6.92671V17.0733C0 20.8993 3.1008 24 6.92655 24H17.0735C20.8992 24 24 20.8993 24 17.0733V6.92671C24 3.1007 20.8992 0 17.0735 0ZM21.7895 17.252C21.7895 19.7906 19.7316 21.85 17.1905 21.85H6.807C4.26836 21.85 2.20795 19.7906 2.20795 17.252V6.86972C2.20795 4.33114 4.26582 2.27178 6.807 2.27178H17.1905C19.7291 2.27178 21.7895 4.33114 21.7895 6.86972V17.252Z" fill="#3A3A3A"/>
<path d="M12.0014 5.83154C8.56233 5.83154 5.77441 8.61881 5.77441 12.0588C5.77441 15.4989 8.56233 18.2862 12.0014 18.2862C15.4405 18.2862 18.2285 15.4989 18.2285 12.0588C18.2285 8.61881 15.4405 5.83154 12.0014 5.83154ZM12.0014 16.0947C9.77314 16.0947 7.96456 14.2866 7.96456 12.0588C7.96456 9.83111 9.77314 8.02302 12.0014 8.02302C14.2297 8.02302 16.0383 9.83111 16.0383 12.0588C16.0383 14.2866 14.2297 16.0947 12.0014 16.0947Z" fill="#3A3A3A"/>
<path d="M18.4363 7.04528C19.237 7.04528 19.8862 6.39582 19.8862 5.59466C19.8862 4.79351 19.237 4.14404 18.4363 4.14404C17.6355 4.14404 16.9863 4.79351 16.9863 5.59466C16.9863 6.39582 17.6355 7.04528 18.4363 7.04528Z" fill="#3A3A3A"/>
</svg>
