<svg width="80" height="60" viewBox="0 0 80 60" fill="none" xmlns="http://www.w3.org/2000/svg">
<rect width="80" height="60" fill="white"/>
<path d="M42.1817 36.194C42.1805 36.2371 50.3333 35.6872 50.3333 35.6872C50.3333 35.6872 50.2826 36.2371 50.215 36.4825L50.209 36.5023C50.116 36.8389 49.8189 37.0732 49.4772 37.0793C46.6819 37.1311 35.4476 37.4456 32.7609 37.4998C32.4204 37.5072 32.1173 37.2791 32.0232 36.9449C31.9109 36.5503 32.2224 36.1619 32.6233 36.1965C32.9215 36.2223 40.7254 36.2729 40.7254 36.2729C40.7629 36.2729 41.8182 32.2259 40.0879 31.9152C39.9176 31.8844 39.2427 31.9016 39.2427 31.9016C39.0869 31.8634 38.9988 31.6969 39.0555 31.544C39.1135 31.3911 39.2584 31.2925 39.419 31.2974C40.0299 31.3196 41.2773 31.4146 41.9836 31.4836C42.2022 31.5046 42.3652 31.6982 42.3531 31.9226C42.2927 32.967 42.1974 35.6958 42.1805 36.1928L42.1817 36.194ZM42.0271 27.3232C41.9824 27.3577 41.9885 27.428 42.0392 27.4539C43.0595 27.9681 44.168 28.4342 45.3622 28.8497C46.5551 29.2653 47.7517 29.6179 48.952 29.909C49.0099 29.9225 49.0305 29.9965 48.987 30.0384L48.9278 30.0976C48.2879 30.7401 47.3195 30.9016 46.5129 30.4996L46.3475 30.417C45.7811 30.1346 41.8556 28.2344 41.2435 27.9471C41.2193 27.936 41.1903 27.9385 41.1686 27.9545C39.949 28.8473 38.6824 29.6081 37.3675 30.237C36.1141 30.8375 34.8547 31.3492 33.5893 31.7721C33.4516 31.819 33.2995 31.782 33.1944 31.6797L33.1799 31.6661C33.064 31.5527 33.1026 31.3554 33.2524 31.2962C35.235 30.5095 37.1223 29.5033 38.9118 28.2776C40.7532 27.0174 42.3749 25.497 43.7755 23.7189C43.8166 23.6671 43.7792 23.5894 43.7139 23.5919C42.6948 23.635 37.6814 23.9273 35.91 24.0469C35.5285 24.0728 35.1638 23.8816 34.9597 23.5512L34.577 22.9285C34.5432 22.873 34.5866 22.8027 34.6506 22.8101L35.1083 22.8656C35.3437 22.8939 36.3592 22.9753 36.6224 22.9815C36.8857 22.9876 44.4747 22.6325 45.6978 22.5018C45.7848 22.4919 45.8693 22.5228 45.9321 22.5844L46.1639 22.8113C46.2569 22.9026 46.2666 23.0518 46.1869 23.1541C45.5662 23.9458 44.9142 24.6831 44.2344 25.365C43.5316 26.0691 42.7963 26.7227 42.0295 27.3232H42.0271Z" fill="#ABABAB"/>
<path d="M61.4971 23.8267C61.4877 23.9145 61.5494 23.9949 61.6332 24.0034C61.8253 24.0217 62.0208 24.0339 62.221 24.04C62.4747 24.0473 62.7203 24.0437 62.9601 24.029C63.386 24.0156 63.833 24.0047 64.2997 23.9973C64.6989 23.9913 65.0434 23.9827 65.3356 23.9718C65.4159 23.9693 65.4799 23.8999 65.4799 23.8158V22.3753C65.4799 21.9012 65.2762 21.5246 64.87 21.2455C64.5267 21.0103 64.025 20.7971 63.3639 20.6069C63.2231 20.5667 63.1486 20.4156 63.1987 20.2718C63.2662 20.0805 63.4547 19.9696 63.6456 20.0073C64.5534 20.1926 67.0162 20.702 66.9999 20.7715C66.951 20.9835 66.9103 21.2175 66.8789 21.4747C66.8393 21.7952 66.8184 22.0962 66.8184 22.3753V29.1146C66.8184 29.3657 66.8079 29.6594 66.7881 29.9933C66.7683 30.3285 66.7415 30.6563 66.7078 30.9768C66.674 31.2973 66.6414 31.6044 66.6077 31.8981C66.6077 31.9006 66.6077 31.9042 66.6077 31.9067C66.5623 32.3064 66.262 32.622 65.8803 32.6769L65.6195 32.7147C65.58 32.4222 65.5462 32.0383 65.5195 31.563C65.4927 31.0877 65.4799 30.6563 65.4799 30.2651V28.6272C65.4799 28.5394 65.4089 28.4675 65.3251 28.4712C64.5744 28.4992 63.8923 28.5431 63.2813 28.6016C62.6737 28.6601 62.1116 28.7393 61.596 28.8404C61.5285 28.8538 61.4621 28.8173 61.4342 28.7515L61.2422 28.3054C61.1793 28.1604 60.9733 28.1957 60.9582 28.3542C60.9489 28.4505 60.9396 28.5443 60.9326 28.6333C60.9186 28.8124 60.9023 28.9806 60.8849 29.139C60.8744 29.2365 60.9524 29.3182 61.0455 29.3096C61.1153 29.3035 61.1851 29.2962 61.2515 29.2889C61.3539 29.2767 61.4365 29.3754 61.4121 29.4802L61.2317 30.2651C61.2154 30.3382 61.1502 30.3882 61.0781 30.3833C60.0562 30.3187 59.0645 30.2907 58.1043 30.2968C57.1464 30.3029 56.128 30.3321 55.048 30.3845C54.9688 30.3882 54.906 30.4564 54.9025 30.5393C54.8943 30.7452 54.8699 30.9463 54.828 31.145C54.8152 31.2071 54.7651 31.2547 54.7046 31.2644L54.1611 31.3522C54.0843 31.3643 54.0109 31.3144 53.9935 31.2352C53.9399 30.9914 53.8899 30.7197 53.8457 30.4223C53.7921 30.0664 53.7525 29.7142 53.7258 29.3657L53.4057 24.7602C53.3789 24.4946 53.3429 24.2752 53.2963 24.1009C53.2497 23.9267 53.1729 23.7865 53.0658 23.6817C52.9588 23.5769 52.8156 23.4904 52.6364 23.4197C52.4921 23.3636 52.3151 23.3027 52.1068 23.2381C52.0218 23.2113 51.9776 23.1138 52.0114 23.0285C52.1022 22.8042 52.314 22.6604 52.5468 22.6678C54.26 22.7226 60.3623 22.608 61.4843 22.5861C61.5762 22.5849 61.6472 22.6702 61.6321 22.764C61.5832 23.0736 61.539 23.427 61.4982 23.8243L61.4971 23.8267ZM59.9956 23.7865C59.9991 23.7 59.9363 23.6269 59.8536 23.6244C59.0447 23.5891 58.1986 23.5842 57.3129 23.6098C56.4318 23.6354 55.6299 23.6744 54.9071 23.7256C54.8268 23.7317 54.7663 23.8024 54.7698 23.8864L54.9246 28.9684C54.9246 29.0659 54.9281 29.1744 54.9351 29.2926C54.9385 29.3547 54.9397 29.4169 54.9374 29.4766C54.9339 29.5643 55.0026 29.6375 55.0864 29.6375C55.9325 29.635 56.7274 29.618 57.4735 29.5851C58.2195 29.5521 58.9458 29.5034 59.6523 29.44C59.7268 29.4327 59.785 29.3693 59.7885 29.2901L59.9968 23.7853L59.9956 23.7865ZM62.7133 32.8219C62.6842 32.917 62.7471 33.0157 62.8413 33.0254C63.3046 33.0778 63.7341 33.1912 64.1298 33.3642C64.5767 33.5592 64.9631 33.8103 65.289 34.1174C65.6161 34.4245 65.8686 34.7803 66.049 35.1849C66.2294 35.5896 66.319 36.0222 66.319 36.4829C66.319 36.985 66.212 37.4529 65.999 37.8856C65.786 38.3182 65.4892 38.6911 65.1098 39.0055C64.7303 39.32 64.2869 39.5637 63.7806 39.738C63.2743 39.9123 62.7215 40 62.1209 40C61.5203 40 60.9652 39.9123 60.4519 39.738C59.9386 39.5637 59.4987 39.3188 59.132 39.0055C58.7654 38.6911 58.4756 38.3182 58.2626 37.8856C58.0496 37.4529 57.9425 36.985 57.9425 36.4829C57.9425 36.0088 58.0391 35.5652 58.2324 35.1533C58.4256 34.7413 58.6921 34.3818 59.0319 34.0747C59.3718 33.7676 59.771 33.5166 60.2319 33.3216C60.6381 33.1497 61.0769 33.0425 61.5506 32.9998C61.6553 32.9901 62.0255 32.5221 61.0513 32.332C60.9605 32.3149 60.9244 32.1943 60.9687 32.1102L61.049 31.9578C61.0804 31.8981 61.1467 31.8664 61.2107 31.8811C61.4796 31.9408 62.4899 32.1407 62.7541 32.1943C62.8472 32.2138 62.9007 32.3186 62.8623 32.41C62.8379 32.4685 62.8146 32.5282 62.7913 32.5891C62.7645 32.6623 62.7389 32.739 62.7133 32.8207V32.8219ZM64.8595 36.378C64.8595 36.0015 64.7897 35.6456 64.65 35.3105C64.5104 34.9753 64.3172 34.6828 64.0704 34.4318C63.8237 34.1807 63.5304 33.9821 63.1905 33.8359C62.8507 33.6896 62.4875 33.6165 62.1011 33.6165C61.7147 33.6165 61.3516 33.6896 61.0117 33.8359C60.6719 33.9821 60.3786 34.1807 60.1318 34.4318C59.8851 34.6828 59.6919 34.9765 59.5522 35.3105C59.4125 35.6456 59.3427 36.0015 59.3427 36.378C59.3427 36.7546 59.4125 37.1105 59.5522 37.4456C59.6919 37.7808 59.8851 38.0696 60.1318 38.3145C60.3786 38.5583 60.6719 38.7508 61.0117 38.8898C61.3516 39.0299 61.7147 39.0994 62.1011 39.0994C62.4875 39.0994 62.867 39.0299 63.201 38.8898C63.5339 38.7496 63.8237 38.5583 64.0704 38.3145C64.3172 38.0708 64.5104 37.7808 64.65 37.4456C64.7897 37.1105 64.8595 36.7546 64.8595 36.378ZM61.447 25.054C61.383 25.0661 61.3353 25.1198 61.3271 25.188C61.2782 25.5841 61.2294 25.9826 61.1816 26.3835C61.1351 26.7711 61.0932 27.1501 61.0559 27.5218C61.0478 27.6059 61.1048 27.6815 61.1851 27.6924C61.4272 27.7253 61.7182 27.7534 62.0604 27.7765C62.4736 27.8045 62.8728 27.8119 63.2603 27.7972C63.634 27.7838 64.0169 27.7765 64.4103 27.7765C64.7455 27.7765 65.0551 27.7716 65.3367 27.7607C65.417 27.7582 65.4799 27.6888 65.4799 27.6047V24.8212C65.4799 24.7322 65.4077 24.6615 65.3228 24.6652C64.5336 24.7054 63.8225 24.7554 63.1917 24.8139C62.5608 24.8724 61.9801 24.9528 61.4493 25.0552L61.447 25.054Z" fill="#ABABAB"/>
<path d="M25.5037 27.5623C25.6757 27.1354 25.8417 26.6631 26.0007 26.1464C26.1596 25.6297 26.309 25.0934 26.4478 24.5349C26.5866 23.9776 26.7194 23.4191 26.8451 22.8619C26.9377 22.4522 27.0207 21.5124 27.0586 21.04C27.0693 20.9133 26.9602 20.8124 26.8404 20.8371C25.4124 21.1323 18.2581 21.489 15.2906 21.2393C14.9869 21.2135 14.7426 21.4927 14.796 21.804C14.8778 22.2837 15.0795 22.8631 15.5812 22.8631C15.784 22.8631 16.8431 22.7118 17.1539 22.6909C17.4646 22.67 17.7635 22.6528 18.0482 22.6392C18.3328 22.6257 18.5748 22.6122 18.7728 22.5986C19.0006 22.5913 19.2532 22.5814 19.5212 22.5691C19.7371 22.5593 19.9613 22.5494 20.2032 22.5371C20.7464 22.5101 21.3157 22.4855 21.9111 22.4645C22.2314 22.4535 22.5516 22.4424 22.8718 22.4313C23.147 22.4215 23.4234 22.4116 23.6985 22.403C24.2939 22.3821 24.8443 22.3723 25.3472 22.3723C25.3211 23.2506 25.238 23.8091 25.0993 24.7846C25.0115 25.3972 24.9012 25.9902 24.7802 26.5757C24.7079 26.9226 24.6367 27.2695 24.5525 27.6066C24.1421 27.6201 22.0333 27.6792 21.4438 27.6988C20.8544 27.7198 20.2554 27.7333 19.647 27.7394C19.0373 27.7468 18.4585 27.753 17.9094 27.7604C17.652 27.764 17.4053 27.7653 17.1669 27.7677C16.8965 27.7702 16.6367 27.7714 16.39 27.7714C15.9263 27.7714 12.9078 27.6177 12.603 27.5918C12.1973 27.5561 11.8925 27.9719 12.036 28.3668C12.1546 28.6916 12.4701 28.8921 12.8022 28.8527C13.1106 28.8171 13.4225 28.7863 13.738 28.7605C14.248 28.7199 14.7604 28.6854 15.2775 28.6571C15.542 28.6436 15.9334 28.6264 16.4493 28.6055C16.5656 28.6005 16.696 28.5956 16.8194 28.5907C17.2428 28.5735 17.6947 28.555 18.1976 28.5341C18.8464 28.5071 19.5284 28.4825 20.2435 28.4615C20.9587 28.4406 21.6573 28.4234 22.3393 28.4099C23.0213 28.3963 23.6535 28.3853 24.2358 28.3791C24.7601 28.373 25.187 28.3693 25.5393 28.3693C25.5784 28.3693 25.6282 28.3693 25.6662 28.3693C26.5664 28.384 27.4038 28.3976 28.1783 28.4111C28.4036 28.4148 28.6195 28.4197 28.8235 28.4246C29.5743 28.4431 30.2207 27.8797 30.3333 27.1096C29.6181 27.2203 26.4075 27.5229 25.5073 27.5648L25.5037 27.5623Z" fill="#FFB443"/>
<path d="M17.9367 38.1625C17.8109 38.1379 17.7777 37.9251 17.7777 37.6778V36.2152C17.7777 36.1057 17.7813 35.9753 17.7872 35.824C17.7908 35.733 17.7255 35.5472 17.8026 35.5644C18.3257 35.6813 25.8334 35.5189 26.532 35.1462L26.6044 34.4253C26.6091 34.3724 26.5676 34.3281 26.5166 34.3331C26.4656 34.338 26.4181 34.3404 26.366 34.3404C26.3351 34.3404 26.3007 34.3404 26.2651 34.3429C26.1596 34.3478 26.0742 34.2519 26.092 34.1436L26.3766 32.3008C26.4051 32.1225 26.5261 31.5086 26.5913 31.1777C26.6127 31.0695 26.5308 30.9686 26.4241 30.9711C25.0625 31.0067 17.5263 31.083 15.7069 31.0006C15.542 30.9932 15.4341 31.1777 15.5159 31.3266L15.5966 31.4717L15.7958 31.8322C15.9239 32.0634 16.1754 32.1914 16.4304 32.1545C16.5466 32.1372 16.6652 32.1212 16.7838 32.1065C17.0483 32.072 17.3069 32.045 17.5583 32.0241C17.8097 32.0032 18.0446 31.9859 18.2628 31.9724C18.4811 31.9589 18.6637 31.9453 18.8096 31.9318C19.1535 31.9047 19.6078 31.8801 20.17 31.8592C20.7322 31.8383 21.3157 31.8211 21.9182 31.8076C22.5208 31.794 23.0972 31.7866 23.6463 31.7866C24.1089 31.7866 24.4944 31.7916 24.8027 31.8014C24.8941 31.8039 24.9652 31.8838 24.9629 31.9785L24.6509 34.2949C23.9998 34.6271 18.7776 34.803 15.3843 34.4659C15.2692 34.4548 15.1613 34.5164 15.1091 34.6234C15.0391 34.7673 15.1079 34.9432 15.2538 34.9961C15.4447 35.0662 15.6037 35.129 15.7306 35.1856C15.9156 35.268 16.0579 35.3676 16.1576 35.4845C16.2572 35.6014 16.3236 35.7453 16.3556 35.9175C16.3888 36.0897 16.4055 36.305 16.4055 36.5658V38.1318C16.4055 38.4479 16.4814 38.705 16.6344 38.9043C16.7874 39.1036 17.0352 39.1897 17.3792 39.1614C17.9888 39.1344 18.7064 39.1061 19.5343 39.079C20.3621 39.0519 21.2256 39.031 22.1258 39.0175C23.026 39.004 23.9203 39.0003 24.8075 39.0076C25.3199 39.0113 25.8073 39.0187 26.2711 39.0298C26.8416 39.0433 27.3421 38.6398 27.4666 38.0629L27.4773 37.6385C27.0966 38.0481 19.335 38.4405 17.9355 38.1625H17.9367Z" fill="#FFB443"/>
</svg>
