<svg width="691" height="179" viewBox="0 0 691 179" fill="none" xmlns="http://www.w3.org/2000/svg">
<path d="M84.6164 174.233C131.349 174.233 169.233 136.349 169.233 89.6165C169.233 42.8841 131.349 5 84.6164 5C37.8841 5 0 42.8841 0 89.6165C0 136.349 37.8841 174.233 84.6164 174.233Z" fill="url(#paint0_radial_34_18)"/>
<path d="M169.222 63.4769H88.1177V69.6421H169.222V63.4769Z" fill="#7C7B7C"/>
<path d="M169.222 78.4169H88.1177V84.5822H169.222V78.4169Z" fill="#7C7B7C"/>
<path d="M169.222 93.3569H88.1177V99.5221H169.222V93.3569Z" fill="#7C7B7C"/>
<path d="M169.222 108.297H88.1177V114.462H169.222V108.297Z" fill="#7C7B7C"/>
<path d="M169.222 123.237H88.1177V129.402H169.222V123.237Z" fill="#7C7B7C"/>
<path d="M169.222 138.177H88.1177V144.342H169.222V138.177Z" fill="#7C7B7C"/>
<path d="M169.222 153.117H88.1177V159.282H169.222V153.117Z" fill="#7C7B7C"/>
<path d="M169.222 168.057H88.1177V174.222H169.222V168.057Z" fill="#7C7B7C"/>
<path d="M468.992 143.754C468.982 144.134 542.398 139.285 542.398 139.285C542.398 139.285 541.942 144.134 541.333 146.298L541.279 146.472C540.441 149.44 537.766 151.506 534.689 151.561C509.517 152.017 408.352 154.79 384.159 155.269C381.092 155.334 378.363 153.322 377.515 150.376C376.504 146.896 379.309 143.471 382.919 143.775C385.605 144.004 455.879 144.45 455.879 144.45C456.216 144.45 465.72 108.763 450.138 106.023C448.605 105.751 442.527 105.904 442.527 105.904C441.124 105.566 440.33 104.099 440.841 102.75C441.363 101.402 442.668 100.532 444.114 100.576C449.616 100.771 460.848 101.609 467.209 102.217C469.177 102.402 470.645 104.109 470.536 106.088C469.993 115.298 469.134 139.361 468.982 143.743L468.992 143.754ZM467.601 65.5308C467.198 65.8352 467.253 66.455 467.709 66.6834C476.897 71.2176 486.879 75.3277 497.633 78.992C508.376 82.6563 519.151 85.7661 529.959 88.3322C530.481 88.4518 530.666 89.1042 530.275 89.4739L529.742 89.9958C523.979 95.6609 515.259 97.0853 507.995 93.5405L506.506 92.812C501.406 90.322 466.057 73.5662 460.544 71.0327C460.326 70.9348 460.065 70.9566 459.87 71.0979C448.888 78.9703 437.481 85.6791 425.64 91.2245C413.799 96.7699 403.013 101.032 391.618 104.762C390.378 105.175 389.008 104.849 388.062 103.946L387.932 103.827C386.888 102.826 387.236 101.087 388.584 100.565C406.438 93.6275 423.433 84.7549 439.547 73.9468C456.129 62.8342 470.732 49.4274 483.345 33.748C483.715 33.2913 483.378 32.6063 482.791 32.628C473.614 33.0086 428.467 35.5856 412.516 36.6403C409.08 36.8686 405.797 35.1833 403.959 32.2692L400.512 26.7782C400.208 26.2889 400.599 25.6691 401.175 25.7343L405.296 26.2236C407.417 26.4737 416.561 27.1913 418.932 27.2457C421.302 27.3001 489.641 24.1685 500.656 23.016C501.439 22.929 502.2 23.2008 502.765 23.7445L504.853 25.7452C505.69 26.5498 505.777 27.8655 505.059 28.768C499.47 35.7487 493.599 42.2509 487.477 48.2639C481.149 54.4726 474.527 60.2355 467.622 65.5308H467.601Z" fill="#7C7B7C"/>
<path d="M639.122 34.1426C639.035 34.9255 639.612 35.6431 640.395 35.7192C642.189 35.8823 644.015 35.9911 645.886 36.0455C648.256 36.1107 650.55 36.0781 652.79 35.9476C656.77 35.828 660.945 35.7301 665.305 35.6649C669.035 35.6105 672.254 35.5344 674.983 35.4366C675.733 35.4148 676.331 34.795 676.331 34.0448V21.1925C676.331 16.9627 674.428 13.6028 670.633 11.1128C667.426 9.01429 662.739 7.11146 656.563 5.41522C655.248 5.0564 654.552 3.7081 655.019 2.42504C655.65 0.717928 657.411 -0.271529 659.195 0.0655451C667.676 1.71829 690.684 6.26334 690.532 6.88312C690.075 8.77509 689.694 10.8628 689.401 13.157C689.031 16.0167 688.835 18.7025 688.835 21.1925V81.3221C688.835 83.562 688.738 86.1825 688.553 89.1618C688.368 92.152 688.118 95.0769 687.802 97.9366C687.487 100.796 687.183 103.536 686.867 106.157C686.867 106.179 686.867 106.211 686.867 106.233C686.443 109.799 683.638 112.616 680.072 113.105L677.636 113.442C677.266 110.832 676.951 107.407 676.701 103.167C676.451 98.9369 676.331 95.0769 676.331 91.5865V76.9727C676.331 76.1899 675.668 75.5483 674.885 75.581C667.872 75.831 661.5 76.2225 655.791 76.7444C650.115 77.2663 644.864 77.9731 640.047 78.8756C639.416 78.9952 638.796 78.669 638.535 78.0818L636.741 74.1022C636.154 72.8083 634.229 73.1236 634.088 74.5371C634.001 75.3961 633.914 76.2334 633.849 77.0271C633.718 78.6255 633.566 80.126 633.403 81.5396C633.305 82.4094 634.034 83.1379 634.904 83.0618C635.556 83.0075 636.208 82.9422 636.828 82.877C637.785 82.7682 638.557 83.649 638.329 84.5841L636.643 91.5865C636.491 92.2389 635.882 92.6847 635.208 92.6412C625.661 92.065 616.397 91.8149 607.427 91.8692C598.478 91.9236 588.964 92.1846 578.873 92.6521C578.134 92.6848 577.547 93.2936 577.514 94.033C577.438 95.8706 577.21 97.6647 576.818 99.4371C576.699 99.9916 576.231 100.416 575.666 100.503L570.588 101.286C569.87 101.394 569.185 100.948 569.022 100.242C568.522 98.067 568.054 95.6423 567.641 92.9892C567.141 89.8142 566.771 86.6718 566.521 83.562L563.531 42.4716C563.281 40.1012 562.944 38.144 562.509 36.5891C562.074 35.0342 561.356 33.7838 560.356 32.8487C559.356 31.9136 558.018 31.1416 556.344 30.5109C554.995 30.0108 553.343 29.4671 551.396 28.8908C550.602 28.6516 550.189 27.7817 550.505 27.0206C551.353 25.0199 553.332 23.7368 555.506 23.8021C571.512 24.2914 628.521 23.2692 639.003 23.0735C639.862 23.0627 640.525 23.8238 640.384 24.6611C639.927 27.4229 639.514 30.5761 639.133 34.1209L639.122 34.1426ZM625.096 33.7947C625.128 33.0227 624.541 32.3703 623.769 32.3485C616.212 32.0332 608.307 31.9897 600.033 32.218C591.802 32.4464 584.31 32.7943 577.558 33.251C576.807 33.3054 576.242 33.936 576.274 34.6863L577.721 80.0282C577.721 80.898 577.753 81.8658 577.818 82.9205C577.851 83.475 577.862 84.0296 577.84 84.5624C577.808 85.3452 578.449 85.9976 579.232 85.9976C587.137 85.9759 594.563 85.8236 601.533 85.5301C608.503 85.2365 615.288 84.8015 621.888 84.2361C622.584 84.1709 623.128 83.6055 623.16 82.8987L625.107 33.7838L625.096 33.7947ZM650.474 114.399C650.202 115.247 650.79 116.128 651.67 116.215C655.998 116.682 660.01 117.693 663.707 119.237C667.882 120.977 671.492 123.217 674.537 125.957C677.592 128.697 679.952 131.872 681.637 135.482C683.323 139.092 684.16 142.952 684.16 147.062C684.16 151.542 683.16 155.718 681.17 159.578C679.18 163.438 676.407 166.765 672.862 169.57C669.318 172.376 665.175 174.55 660.445 176.105C655.715 177.66 650.55 178.443 644.94 178.443C639.329 178.443 634.142 177.66 629.347 176.105C624.552 174.55 620.442 172.365 617.017 169.57C613.592 166.765 610.884 163.438 608.895 159.578C606.905 155.718 605.904 151.542 605.904 147.062C605.904 142.833 606.807 138.875 608.612 135.2C610.417 131.524 612.907 128.317 616.082 125.577C619.257 122.837 622.986 120.597 627.292 118.857C631.087 117.324 635.186 116.367 639.612 115.986C640.59 115.899 644.048 111.724 634.947 110.028C634.099 109.876 633.762 108.799 634.175 108.049L634.925 106.69C635.219 106.157 635.839 105.874 636.437 106.005C638.948 106.537 648.387 108.321 650.855 108.799C651.725 108.973 652.225 109.908 651.866 110.724C651.638 111.246 651.42 111.778 651.203 112.322C650.953 112.974 650.713 113.659 650.474 114.388V114.399ZM670.536 146.138C670.536 142.778 669.883 139.603 668.578 136.613C667.274 133.623 665.469 131.013 663.163 128.773C660.858 126.533 658.118 124.761 654.943 123.456C651.768 122.152 648.376 121.499 644.766 121.499C641.156 121.499 637.763 122.152 634.588 123.456C631.413 124.761 628.673 126.533 626.368 128.773C624.063 131.013 622.258 133.634 620.953 136.613C619.648 139.603 618.996 142.778 618.996 146.138C618.996 149.498 619.648 152.673 620.953 155.663C622.258 158.653 624.063 161.23 626.368 163.416C628.673 165.591 631.413 167.309 634.588 168.548C637.763 169.799 641.156 170.418 644.766 170.418C648.376 170.418 651.92 169.799 655.041 168.548C658.151 167.298 660.858 165.591 663.163 163.416C665.469 161.241 667.274 158.653 668.578 155.663C669.883 152.673 670.536 149.498 670.536 146.138ZM638.655 45.103C638.057 45.2117 637.611 45.6901 637.535 46.299C637.078 49.8329 636.622 53.3884 636.176 56.9658C635.741 60.4235 635.349 63.8051 635.001 67.1215C634.925 67.8718 635.458 68.5459 636.208 68.6438C638.47 68.9373 641.188 69.1874 644.385 69.394C648.245 69.6441 651.975 69.7094 655.596 69.5789C659.086 69.4593 662.663 69.394 666.338 69.394C669.47 69.394 672.362 69.3505 674.994 69.2527C675.744 69.2309 676.331 68.6111 676.331 67.8609V43.0261C676.331 42.2324 675.657 41.6017 674.863 41.6343C667.491 41.9932 660.847 42.439 654.954 42.9609C649.061 43.4828 643.635 44.2005 638.677 45.1138L638.655 45.103Z" fill="#7C7B7C"/>
<path d="M325.03 67.4775C326.607 63.7044 328.129 59.5291 329.586 54.9623C331.043 50.3954 332.413 45.6547 333.685 40.7182C334.958 35.7925 336.175 30.856 337.328 25.9304C338.176 22.3096 338.937 14.0023 339.285 9.82697C339.383 8.70701 338.383 7.8154 337.284 8.03286C324.193 10.6425 258.605 13.7957 231.4 11.5884C228.616 11.3601 226.376 13.8284 226.866 16.5793C227.616 20.8199 229.464 25.9413 234.064 25.9413C235.923 25.9413 245.633 24.6039 248.482 24.419C251.331 24.2342 254.071 24.0819 256.68 23.9623C259.29 23.8427 261.508 23.7231 263.324 23.6035C265.412 23.5383 267.728 23.4513 270.185 23.3425C272.164 23.2556 274.219 23.1686 276.437 23.0598C281.417 22.8206 286.636 22.6032 292.095 22.4183C295.031 22.3204 297.966 22.2226 300.902 22.1247C303.425 22.0377 305.958 21.9508 308.481 21.8746C313.939 21.6898 318.985 21.6028 323.595 21.6028C323.356 29.3664 322.595 34.3029 321.322 42.9255C320.518 48.3404 319.506 53.5813 318.397 58.7571C317.734 61.8233 317.082 64.8896 316.31 67.8689C312.548 67.9885 293.215 68.5105 287.811 68.6844C282.407 68.8693 276.916 68.9889 271.338 69.0433C265.749 69.1085 260.442 69.1629 255.408 69.2281C253.049 69.2607 250.787 69.2716 248.601 69.2933C246.122 69.3151 243.741 69.326 241.479 69.326C237.228 69.326 209.555 67.9668 206.761 67.7384C203.042 67.4231 200.248 71.0983 201.563 74.5887C202.651 77.4592 205.543 79.2316 208.587 78.8836C211.414 78.5683 214.274 78.2965 217.166 78.0681C221.842 77.7093 226.539 77.4049 231.28 77.1548C233.705 77.0352 237.293 76.8829 242.023 76.6981C243.089 76.6546 244.285 76.6111 245.415 76.5676C249.297 76.4154 253.44 76.2523 258.05 76.0674C263.998 75.8282 270.25 75.6108 276.807 75.4259C283.363 75.2411 289.768 75.0888 296.02 74.9692C302.272 74.8496 308.068 74.7518 313.407 74.6974C318.213 74.643 322.127 74.6104 325.356 74.6104C325.715 74.6104 326.172 74.6104 326.52 74.6104C334.773 74.7409 342.449 74.8605 349.55 74.9801C351.616 75.0127 353.594 75.0562 355.465 75.0997C362.347 75.2628 368.273 70.2828 369.306 63.4761C362.75 64.4547 333.316 67.1295 325.063 67.4992L325.03 67.4775Z" fill="#F5C51D"/>
<path d="M255.658 161.184C254.506 160.967 254.201 159.086 254.201 156.9V143.972C254.201 143.004 254.234 141.851 254.288 140.514C254.321 139.709 253.723 138.067 254.429 138.22C259.225 139.253 328.053 137.817 334.457 134.523L335.121 128.151C335.164 127.683 334.784 127.292 334.316 127.335C333.848 127.379 333.413 127.401 332.935 127.401C332.652 127.401 332.337 127.401 332.011 127.422C331.043 127.466 330.26 126.618 330.423 125.661L333.033 109.373C333.294 107.796 334.403 102.37 335.001 99.4452C335.197 98.4883 334.446 97.5967 333.468 97.6184C320.985 97.9338 251.896 98.6079 235.216 97.8794C233.705 97.8142 232.715 99.4452 233.466 100.761L234.205 102.044L236.032 105.23C237.206 107.274 239.511 108.405 241.849 108.079C242.915 107.926 244.002 107.785 245.089 107.655C247.514 107.35 249.884 107.111 252.19 106.926C254.495 106.741 256.648 106.589 258.648 106.469C260.649 106.35 262.324 106.23 263.661 106.111C266.814 105.871 270.979 105.654 276.133 105.469C281.287 105.284 286.636 105.132 292.16 105.012C297.684 104.893 302.968 104.827 308.002 104.827C312.243 104.827 315.777 104.871 318.604 104.958C319.441 104.98 320.094 105.686 320.072 106.524L317.212 126.998C311.243 129.934 263.367 131.489 232.259 128.51C231.204 128.412 230.215 128.955 229.736 129.901C229.095 131.174 229.725 132.728 231.063 133.196C232.813 133.816 234.27 134.37 235.434 134.871C237.13 135.599 238.435 136.48 239.348 137.513C240.261 138.546 240.87 139.818 241.164 141.34C241.468 142.862 241.621 144.765 241.621 147.07V160.912C241.621 163.707 242.317 165.979 243.719 167.741C245.122 169.502 247.394 170.263 250.548 170.013C256.137 169.774 262.715 169.524 270.305 169.285C277.894 169.045 285.81 168.861 294.063 168.741C302.316 168.621 310.514 168.589 318.647 168.654C323.345 168.687 327.814 168.752 332.065 168.85C337.295 168.969 341.884 165.403 343.026 160.303L343.123 156.552C339.633 160.173 268.478 163.641 255.647 161.184H255.658Z" fill="#F5C51D"/>
<defs>
<radialGradient id="paint0_radial_34_18" cx="0" cy="0" r="1" gradientUnits="userSpaceOnUse" gradientTransform="translate(84.6164 89.6164) scale(84.6164 84.6164)">
<stop offset="0.16" stop-color="#FCE7AD"/>
<stop offset="1" stop-color="#F5C51D"/>
</radialGradient>
</defs>
</svg>
