<svg width="170" height="680" viewBox="0 0 170 680" fill="none" xmlns="http://www.w3.org/2000/svg">
<path d="M85.2325 679.28C131.965 679.28 169.849 641.396 169.849 594.664C169.849 547.932 131.965 510.047 85.2325 510.047C38.5001 510.047 0.616028 547.932 0.616028 594.664C0.616028 641.396 38.5001 679.28 85.2325 679.28Z" fill="url(#paint0_radial_6_746)"/>
<path d="M169.838 568.524H88.7337V574.69H169.838V568.524Z" fill="#7C7B7C"/>
<path d="M169.838 583.464H88.7337V589.63H169.838V583.464Z" fill="#7C7B7C"/>
<path d="M169.838 598.404H88.7337V604.569H169.838V598.404Z" fill="#7C7B7C"/>
<path d="M169.838 613.344H88.7337V619.509H169.838V613.344Z" fill="#7C7B7C"/>
<path d="M169.838 628.284H88.7337V634.449H169.838V628.284Z" fill="#7C7B7C"/>
<path d="M169.838 643.224H88.7337V649.389H169.838V643.224Z" fill="#7C7B7C"/>
<path d="M169.838 658.164H88.7337V664.329H169.838V658.164Z" fill="#7C7B7C"/>
<path d="M169.838 673.104H88.7337V679.269H169.838V673.104Z" fill="#7C7B7C"/>
<path d="M94.362 307.107C94.3512 307.488 167.768 302.638 167.768 302.638C167.768 302.638 167.311 307.488 166.702 309.652L166.648 309.826C165.811 312.794 163.136 314.86 160.059 314.914C134.887 315.371 33.7213 318.144 9.52813 318.622C6.46185 318.687 3.73264 316.676 2.88452 313.729C1.87329 310.25 4.67862 306.825 8.28857 307.129C10.9743 307.357 81.2488 307.803 81.2488 307.803C81.5858 307.803 91.0892 272.117 75.5076 269.377C73.9745 269.105 67.8963 269.257 67.8963 269.257C66.4936 268.92 65.6999 267.452 66.2109 266.104C66.7328 264.756 68.0376 263.886 69.4838 263.929C74.9857 264.125 86.2179 264.962 92.5788 265.571C94.5469 265.756 96.0148 267.463 95.906 269.442C95.3624 278.652 94.5034 302.714 94.3512 307.096L94.362 307.107ZM92.9702 228.884C92.5679 229.189 92.6223 229.809 93.079 230.037C102.267 234.571 112.249 238.681 123.002 242.346C133.745 246.01 144.521 249.12 155.329 251.686C155.851 251.805 156.036 252.458 155.644 252.827L155.111 253.349C149.349 259.014 140.628 260.439 133.365 256.894L131.875 256.166C126.775 253.676 91.4262 236.92 85.9134 234.386C85.696 234.288 85.435 234.31 85.2393 234.451C74.2572 242.324 62.8511 249.033 51.01 254.578C39.1689 260.123 28.3825 264.386 16.9873 268.115C15.7477 268.529 14.3776 268.202 13.4317 267.3L13.3012 267.18C12.2573 266.18 12.6053 264.44 13.9536 263.918C31.8076 256.981 48.8027 248.108 64.917 237.3C81.4989 226.188 96.1018 212.781 108.715 197.102C109.085 196.645 108.747 195.96 108.16 195.982C98.9832 196.362 53.837 198.939 37.8858 199.994C34.4499 200.222 31.1661 198.537 29.3285 195.623L25.8817 190.132C25.5772 189.642 25.9686 189.023 26.5449 189.088L30.6659 189.577C32.7862 189.827 41.9307 190.545 44.3011 190.599C46.6715 190.654 115.011 187.522 126.025 186.369C126.808 186.283 127.569 186.554 128.135 187.098L130.222 189.099C131.06 189.903 131.147 191.219 130.429 192.122C124.84 199.102 118.968 205.604 112.847 211.617C106.518 217.826 99.8966 223.589 92.992 228.884H92.9702Z" fill="#7C7B7C"/>
<path d="M103.76 377.077C103.673 377.86 104.249 378.578 105.032 378.654C106.826 378.817 108.653 378.926 110.523 378.98C112.893 379.045 115.187 379.013 117.427 378.882C121.407 378.763 125.582 378.665 129.943 378.6C133.672 378.545 136.891 378.469 139.62 378.371C140.37 378.35 140.968 377.73 140.968 376.979V364.127C140.968 359.897 139.065 356.538 135.27 354.048C132.063 351.949 127.376 350.046 121.2 348.35C119.885 347.991 119.189 346.643 119.656 345.36C120.287 343.653 122.049 342.663 123.832 343C132.313 344.653 155.321 349.198 155.169 349.818C154.712 351.71 154.331 353.797 154.038 356.092C153.668 358.951 153.472 361.637 153.472 364.127V424.257C153.472 426.497 153.375 429.117 153.19 432.096C153.005 435.087 152.755 438.012 152.44 440.871C152.124 443.731 151.82 446.471 151.504 449.092C151.504 449.113 151.504 449.146 151.504 449.168C151.08 452.734 148.275 455.55 144.709 456.04L142.273 456.377C141.903 453.767 141.588 450.342 141.338 446.101C141.088 441.872 140.968 438.012 140.968 434.521V419.907C140.968 419.125 140.305 418.483 139.522 418.516C132.509 418.766 126.137 419.157 120.428 419.679C114.752 420.201 109.501 420.908 104.684 421.81C104.053 421.93 103.433 421.604 103.172 421.017L101.378 417.037C100.791 415.743 98.8665 416.058 98.7252 417.472C98.6382 418.331 98.5512 419.168 98.4859 419.962C98.3555 421.56 98.2032 423.061 98.0401 424.474C97.9423 425.344 98.6708 426.073 99.5407 425.997C100.193 425.942 100.845 425.877 101.465 425.812C102.422 425.703 103.194 426.584 102.966 427.519L101.28 434.521C101.128 435.174 100.519 435.619 99.8451 435.576C90.2983 435 81.0342 434.75 72.0637 434.804C63.1149 434.858 53.6007 435.119 43.5103 435.587C42.7709 435.619 42.1837 436.228 42.1511 436.968C42.075 438.805 41.8466 440.599 41.4552 442.372C41.3356 442.926 40.868 443.35 40.3026 443.437L35.2248 444.22C34.5071 444.329 33.8221 443.883 33.659 443.176C33.1588 441.002 32.6913 438.577 32.2781 435.924C31.7779 432.749 31.4082 429.606 31.1581 426.497L28.168 385.406C27.9179 383.036 27.5808 381.079 27.1459 379.524C26.7109 377.969 25.9933 376.718 24.9929 375.783C23.9926 374.848 22.6552 374.076 20.9807 373.446C19.6324 372.945 17.9796 372.402 16.0333 371.825C15.2395 371.586 14.8264 370.716 15.1417 369.955C15.9898 367.955 17.9688 366.672 20.1434 366.737C36.149 367.226 93.158 366.204 103.64 366.008C104.499 365.997 105.162 366.759 105.021 367.596C104.564 370.358 104.151 373.511 103.77 377.056L103.76 377.077ZM89.7329 376.729C89.7655 375.957 89.1783 375.305 88.4063 375.283C80.8494 374.968 72.9444 374.924 64.6698 375.153C56.4387 375.381 48.9469 375.729 42.1946 376.186C41.4443 376.24 40.8789 376.871 40.9115 377.621L42.3577 422.963C42.3577 423.833 42.3903 424.8 42.4555 425.855C42.4882 426.41 42.499 426.964 42.4773 427.497C42.4447 428.28 43.0862 428.932 43.8691 428.932C51.774 428.911 59.2005 428.758 66.1703 428.465C73.1402 428.171 79.9251 427.736 86.5252 427.171C87.2211 427.106 87.7648 426.54 87.7974 425.833L89.7438 376.718L89.7329 376.729ZM115.111 457.334C114.839 458.182 115.427 459.062 116.307 459.149C120.635 459.617 124.647 460.628 128.344 462.172C132.52 463.912 136.129 466.152 139.174 468.892C142.229 471.632 144.589 474.807 146.274 478.417C147.96 482.027 148.797 485.887 148.797 489.997C148.797 494.477 147.797 498.652 145.807 502.512C143.817 506.372 141.044 509.7 137.5 512.505C133.955 515.31 129.812 517.485 125.082 519.04C120.352 520.595 115.187 521.378 109.577 521.378C103.966 521.378 98.7795 520.595 93.9844 519.04C89.1892 517.485 85.0791 515.299 81.654 512.505C78.2289 509.7 75.5214 506.372 73.5316 502.512C71.5418 498.652 70.5414 494.477 70.5414 489.997C70.5414 485.767 71.4439 481.809 73.2489 478.134C75.0539 474.459 77.5439 471.251 80.7189 468.511C83.8939 465.771 87.6235 463.531 91.9293 461.792C95.7241 460.258 99.8234 459.302 104.249 458.921C105.227 458.834 108.685 454.659 99.5841 452.962C98.736 452.81 98.399 451.734 98.8121 450.983L99.5624 449.624C99.856 449.092 100.476 448.809 101.074 448.939C103.586 449.472 113.024 451.255 115.492 451.734C116.362 451.908 116.862 452.843 116.503 453.658C116.275 454.18 116.057 454.713 115.84 455.257C115.59 455.909 115.351 456.594 115.111 457.323V457.334ZM135.173 489.073C135.173 485.713 134.52 482.538 133.215 479.548C131.911 476.558 130.106 473.948 127.8 471.708C125.495 469.468 122.755 467.696 119.58 466.391C116.405 465.086 113.013 464.434 109.403 464.434C105.793 464.434 102.4 465.086 99.2253 466.391C96.0503 467.696 93.3102 469.468 91.0051 471.708C88.6999 473.948 86.8949 476.568 85.5901 479.548C84.2853 482.538 83.6329 485.713 83.6329 489.073C83.6329 492.433 84.2853 495.608 85.5901 498.598C86.8949 501.588 88.6999 504.165 91.0051 506.351C93.3102 508.525 96.0503 510.243 99.2253 511.483C102.4 512.733 105.793 513.353 109.403 513.353C113.013 513.353 116.557 512.733 119.678 511.483C122.788 510.232 125.495 508.525 127.8 506.351C130.106 504.176 131.911 501.588 133.215 498.598C134.52 495.608 135.173 492.433 135.173 489.073ZM103.292 388.038C102.694 388.146 102.248 388.625 102.172 389.234C101.715 392.768 101.259 396.323 100.813 399.9C100.378 403.358 99.9865 406.74 99.6385 410.056C99.5624 410.806 100.095 411.481 100.845 411.578C103.107 411.872 105.825 412.122 109.022 412.329C112.882 412.579 116.612 412.644 120.233 412.514C123.723 412.394 127.3 412.329 130.976 412.329C134.107 412.329 136.999 412.285 139.631 412.187C140.381 412.166 140.968 411.546 140.968 410.796V385.961C140.968 385.167 140.294 384.536 139.5 384.569C132.128 384.928 125.484 385.374 119.591 385.896C113.698 386.418 108.272 387.135 103.314 388.049L103.292 388.038Z" fill="#7C7B7C"/>
<path d="M125.1 59.4775C126.677 55.7044 128.199 51.5291 129.656 46.9623C131.113 42.3954 132.483 37.6547 133.755 32.7182C135.027 27.7925 136.245 22.856 137.398 17.9304C138.246 14.3096 139.007 6.00233 139.355 1.82697C139.453 0.707011 138.452 -0.184604 137.354 0.032863C124.263 2.64247 58.6746 5.79574 31.4695 3.58845C28.6859 3.36011 26.446 5.82836 26.9353 8.57932C27.6855 12.8199 29.534 17.9413 34.1334 17.9413C35.9928 17.9413 45.7027 16.6039 48.5515 16.419C51.4003 16.2342 54.1404 16.0819 56.75 15.9623C59.3596 15.8427 61.5778 15.7231 63.3936 15.6035C65.4813 15.5383 67.7974 15.4513 70.2547 15.3425C72.2337 15.2556 74.2887 15.1686 76.5069 15.0598C81.4869 14.8206 86.7061 14.6032 92.1645 14.4183C95.1003 14.3204 98.0361 14.2226 100.972 14.1247C103.495 14.0377 106.028 13.9508 108.551 13.8746C114.009 13.6898 119.054 13.6028 123.665 13.6028C123.425 21.3664 122.664 26.3029 121.392 34.9255C120.587 40.3404 119.576 45.5813 118.467 50.7571C117.804 53.8233 117.151 56.8896 116.379 59.8689C112.617 59.9885 93.2845 60.5105 87.8804 60.6844C82.4764 60.8693 76.9853 60.9889 71.4073 61.0433C65.8184 61.1085 60.5122 61.1629 55.4778 61.2281C53.1183 61.2607 50.8567 61.2716 48.6711 61.2933C46.192 61.3151 43.8107 61.326 41.5491 61.326C37.2976 61.326 9.62491 59.9668 6.83045 59.7384C3.11177 59.4231 0.317315 63.0983 1.63299 66.5887C2.72033 69.4592 5.61264 71.2316 8.65718 70.8836C11.4842 70.5683 14.3439 70.2965 17.2363 70.0681C21.9118 69.7093 26.6091 69.4049 31.3499 69.1548C33.7746 69.0352 37.3628 68.8829 42.0927 68.6981C43.1583 68.6546 44.3544 68.6111 45.4852 68.5676C49.367 68.4154 53.5098 68.2523 58.1201 68.0674C64.0678 67.8282 70.32 67.6108 76.8766 67.4259C83.4332 67.2411 89.8376 67.0888 96.0898 66.9692C102.342 66.8496 108.137 66.7518 113.476 66.6974C118.282 66.643 122.197 66.6104 125.426 66.6104C125.785 66.6104 126.242 66.6104 126.59 66.6104C134.842 66.7409 142.519 66.8605 149.619 66.9801C151.685 67.0127 153.664 67.0562 155.534 67.0997C162.417 67.2628 168.343 62.2828 169.376 55.4761C162.82 56.4547 133.385 59.1295 125.133 59.4992L125.1 59.4775Z" fill="#F5C51D"/>
<path d="M55.7279 153.184C54.5754 152.967 54.2709 151.086 54.2709 148.9V135.972C54.2709 135.004 54.3035 133.851 54.3579 132.514C54.3905 131.709 53.7925 130.067 54.4992 130.22C59.2944 131.253 128.123 129.817 134.527 126.523L135.19 120.151C135.234 119.683 134.853 119.292 134.386 119.335C133.918 119.379 133.483 119.401 133.005 119.401C132.722 119.401 132.407 119.401 132.081 119.422C131.113 119.466 130.33 118.618 130.493 117.661L133.103 101.373C133.364 99.7959 134.473 94.3701 135.071 91.4452C135.267 90.4883 134.516 89.5967 133.538 89.6184C121.055 89.9338 51.9657 90.6079 35.286 89.8794C33.7746 89.8142 32.7852 91.4452 33.5354 92.7608L34.2748 94.0439L36.1015 97.2298C37.2758 99.274 39.581 100.405 41.9188 100.079C42.9844 99.9264 44.0717 99.785 45.159 99.6545C47.5838 99.3501 49.9542 99.1109 52.2593 98.926C54.5645 98.7412 56.7174 98.5889 58.7181 98.4693C60.7188 98.3497 62.3933 98.2301 63.7307 98.1105C66.884 97.8713 71.0485 97.6538 76.2024 97.469C81.3564 97.2841 86.7061 97.1319 92.2298 97.0123C97.7534 96.8927 103.038 96.8275 108.072 96.8275C112.313 96.8275 115.847 96.871 118.674 96.9579C119.511 96.9797 120.163 97.6865 120.142 98.5237L117.282 118.998C111.313 121.934 63.4371 123.489 32.3285 120.51C31.2738 120.412 30.2843 120.955 29.8059 121.901C29.1643 123.174 29.795 124.728 31.1324 125.196C32.883 125.816 34.34 126.37 35.5035 126.871C37.1997 127.599 38.5045 128.48 39.4179 129.513C40.3313 130.546 40.9402 131.818 41.2337 133.34C41.5382 134.862 41.6904 136.765 41.6904 139.07V152.912C41.6904 155.707 42.3863 157.979 43.789 159.741C45.1916 161.502 47.4642 162.263 50.6174 162.013C56.2064 161.774 62.7847 161.524 70.3743 161.285C77.9639 161.045 85.8797 160.861 94.1326 160.741C102.385 160.621 110.584 160.589 118.717 160.654C123.415 160.687 127.883 160.752 132.135 160.85C137.365 160.969 141.954 157.403 143.095 152.303L143.193 148.552C139.703 152.173 68.5476 155.641 55.7171 153.184H55.7279Z" fill="#F5C51D"/>
<defs>
<radialGradient id="paint0_radial_6_746" cx="0" cy="0" r="1" gradientUnits="userSpaceOnUse" gradientTransform="translate(85.2325 594.664) scale(84.6164 84.6164)">
<stop offset="0.16" stop-color="#FCE7AD"/>
<stop offset="1" stop-color="#F5C51D"/>
</radialGradient>
</defs>
</svg>
